<svg id="Layer_1" data-name="Layer 1" xmlns="http://www.w3.org/2000/svg" viewBox="0 0 893 507.8"><defs><style>.cls-1{fill:#d76aa8;}.cls-2{fill:#f5afce;}.cls-3{fill:#f1cbe0;}.cls-4{fill:#685540;}.cls-15,.cls-5{fill:#fff;}.cls-6{fill:#5b4025;}.cls-7{fill:#765332;}.cls-8{fill:#f9f9f9;}.cls-9{fill:#f4f4f4;}.cls-10{fill:#df80b3;}.cls-11{fill:#dc9dc6;}.cls-12,.cls-13{fill:none;}.cls-12{stroke:#f5afce;}.cls-12,.cls-13,.cls-15{stroke-miterlimit:10;}.cls-13{stroke:#6d4d35;stroke-width:5px;}.cls-14{fill:#050505;}.cls-15{stroke:#231f20;stroke-width:3px;}.cls-16{fill:#ef546f;}.cls-17{fill:#5cbb60;}.cls-18{fill:#e0accf;}.cls-19{fill:#7a664c;}.cls-20{fill:#f2f2f2;}</style></defs><title>logo</title><ellipse class="cls-1" cx="571" cy="82.09" rx="118.61" ry="83.28" transform="translate(149.02 203.76) rotate(-14.14)"/><ellipse class="cls-2" cx="559.39" cy="84.28" rx="94.58" ry="70.85" transform="translate(147.4 192.83) rotate(-13.31)"/><ellipse class="cls-3" cx="639.99" cy="108.31" rx="16.99" ry="7.53" transform="translate(154.57 293.77) rotate(-20.59)"/><ellipse class="cls-3" cx="489.55" cy="139.11" rx="7.53" ry="16.99" transform="translate(480.53 683.73) rotate(-87.44)"/><path class="cls-4" d="M576.91,55.29s20.79-31.48,42.66,2.58c0,0-1.07,5.74-7.53,0,0,0-8.6-22.72-29-2.58C583,55.29,575.48,61.68,576.91,55.29Z" transform="translate(151.77 61.77)"/><path class="cls-4" d="M464.65,81.68s5.22-30.1,32.49-11.92c0,0,1.06,4.6-5.59,2.44,0,0-13.75-14.07-22.38,7.5C469.17,79.71,465.66,86.88,464.65,81.68Z" transform="translate(151.77 61.77)"/><ellipse class="cls-5" cx="651.26" cy="164.81" rx="16.93" ry="15.3"/><ellipse class="cls-6" cx="653.69" cy="165.52" rx="14.5" ry="13.81"/><ellipse class="cls-7" cx="653.69" cy="170.2" rx="5.89" ry="4.68"/><ellipse class="cls-8" cx="653.69" cy="156.54" rx="3.64" ry="3.67"/><ellipse class="cls-5" cx="743.7" cy="145.34" rx="16.93" ry="15.3"/><ellipse class="cls-6" cx="746.13" cy="146.05" rx="14.5" ry="13.81"/><ellipse class="cls-7" cx="746.13" cy="150.73" rx="5.9" ry="4.69"/><ellipse class="cls-8" cx="746.13" cy="137.07" rx="3.64" ry="3.67"/><ellipse class="cls-9" cx="686.51" cy="114.76" rx="17.66" ry="29.92"/><path class="cls-6" d="M540.22,110.77s8.4-5.23,20,2.1c0,0,6.89,3.78-4.79,10.24s-7.16,4.2-7.16,4.2-1,3.36-12.93-9C535.37,118.33,532.14,113.94,540.22,110.77Z" transform="translate(151.77 61.77)"/><ellipse class="cls-7" cx="546.49" cy="113.69" rx="10.84" ry="2.41" transform="translate(140.1 169.67) rotate(-11.16)"/><path class="cls-6" d="M546.49,125.37s16.68,22.27,28.5-3.51c0,0,1.38-8-5.64,0,0,0-4.78,17-17,3Z" transform="translate(151.77 61.77)"/><path class="cls-6" d="M549.88,123.63s-6.26,26-25,5.42c0,0-3.92-7.11,4.71-1.73,0,0,9.84,14.51,15.18-2.41Z" transform="translate(151.77 61.77)"/><path class="cls-6" d="M540.75,134.3s6.08,13.51,11.64,17.66c0,0,7.86,3.85,12.44-8.83V131.55s-9,3.91-15-7.92Z" transform="translate(151.77 61.77)"/><ellipse class="cls-3" cx="553.65" cy="142.61" rx="3.64" ry="5.52" transform="translate(138.88 281.16) rotate(-22.16)"/><path class="cls-1" d="M651.7,12.61C681,38.25,671.45-27,641.55-57.69c0,0-19.25-14.46-63.26,55.81Z" transform="translate(151.77 61.77)"/><path class="cls-1" d="M464.73,71.85c-8.17,38-39.39-20.09-33.75-62.49,0,0,6.8-23,83.85,7.31Z" transform="translate(151.77 61.77)"/><path class="cls-10" d="M634.08-38.2S650.13-21.56,650.13-1c0,0-1.43,7.26-24-7.43,0,0-6.49-1.34,0-11.78C626.08-20.23,635.58-29.67,634.08-38.2Z" transform="translate(151.77 61.77)"/><ellipse class="cls-11" cx="634.07" cy="-16.21" rx="10.93" ry="7.78" transform="translate(436.66 575.07) rotate(-55.13)"/><path class="cls-10" d="M464.65,49.82S469,36.56,477,29c0,0,3.11-1.93-4.47-5.73,0,0-19.44-.44-20-8.39,0,0,2,22.13,8.44,38.08C461,53,463.31,57.56,464.65,49.82Z" transform="translate(151.77 61.77)"/><ellipse class="cls-11" cx="613.51" cy="94.81" rx="6.18" ry="9.28"/><path class="cls-1" d="M521,11.85s6.79-16.6,0-28.06c0,0,23,15.19,23.65,19.18Z" transform="translate(151.77 61.77)"/><path class="cls-1" d="M536.93-5.35s.65-10.89-11.06-20.87c0,0,18.69-5.3,45.13,23.72L544.6,3Z" transform="translate(151.77 61.77)"/><path class="cls-2" d="M523.18,14.95a13,13,0,0,0,11.06-1.7S533.78,7.38,526-2.63C526-2.63,523.35,2.81,523.18,14.95Z" transform="translate(151.77 61.77)"/><path class="cls-2" d="M544.6,3.85s-3.15,11.36,9,11.94c0,0,18.44-2.07,13.7-13.92,0,0-13.32-16.62-26.59-19.71C540.75-17.84,540.93-.64,544.6,3.85Z" transform="translate(151.77 61.77)"/><path class="cls-1" d="M640,140.79s49.78-7.28,60.31-43.72c0,0,4.52-30.77,19.07-30.09,0,0,31.93-12.86,13,40.32,0,0-9.74,65-89.41,59.59,0,0,13.08,18.34,13.12,33.81H532.78S480,215.17,450.44,181.05c0,0-18.06-37.63,32.11-11,0,0,28.06,15,53.29-3.12C535.84,166.89,574.16,172.78,640,140.79Z" transform="translate(151.77 61.77)"/><path class="cls-12" d="M705.82,110.54" transform="translate(151.77 61.77)"/><ellipse class="cls-2" cx="467.91" cy="176.87" rx="9.8" ry="17.2" transform="translate(206.65 520.82) rotate(-55.05)"/><ellipse class="cls-2" cx="716.19" cy="84.28" rx="17.2" ry="9.8" transform="translate(551.1 793.83) rotate(-70.65)"/><path class="cls-13" d="M536.93,201.72s-73.83,15.84-90.13-30.07c0,0-.5-17,20.76-7.49,0,0,23.47,12.3,41.47,12.63.74,0,1.47,0,2.18,0,18.22-.73,18.89-8.88,24.63-8.86,0,0-54.14-8-72.81-40.17,0,0-12.9-13.86-7.47-44.3,0,0-14.12,1.81-24.84-48.81l-.41-2S428.57,9.19,433.18,6.3c0,0,7.57-7.72,22.37-5.53,0,0,31.7,2.14,52.26,13.22l5.3,1.8L521,11.85s6-12.33,0-28.06c0,0,5.58,3.68,16,10.86,0,0,2-6.8-11.06-20.87A28.47,28.47,0,0,1,544.6-23S561.7-17.27,571-2.49l8.47-1.24s28.76-47.17,47.6-52.71c0,0,10.72-5.43,14.49-1.25,0,0,7.06,7,17,24.82,0,0,11,19.67,10.82,40.68,0,0,.28,9.36-6.54,10.63a109.48,109.48,0,0,1,17.59,20.5s20.11,25.8-5,68.11c0,0-8.93,17.39-35.43,34.75,0,0,31.85-5.35,45.89-21A43.22,43.22,0,0,0,700.3,98.08S704,63.64,725.58,66.66a11.57,11.57,0,0,1,11.68,7.09s4.55,10.28-2.39,27.08c0,0-4.77,18.49-12.26,32.16,0,0-13.31,22.83-37.58,30.07,0,0-14.54,6.84-42,4.85,0,0,10.84,12.56,13.12,33.81Z" transform="translate(151.77 61.77)"/><path class="cls-14" d="M404.62,85.58l20.58,80.3s9.69,11.63-6,23.22q-1.1.81-2.36,1.62c-19,12.11-45.21,26.8-73.21,11.43,0,0-9.38-73-15.22-85.81l-40.52,2s-14.54,5.08-13.86-3.63c0,0-67.38,56.17-106.69,63.65,0,0,36.55,38.86,56.89-16.51l52.24-26.13s22.75,42.44-14.68,72.42c0,0-42,44.29-108.81,21.3,0,0-35.64-5.07-58.9-52.45,0,0-27.64,34.65-53,49.26,0,0,23.83,34.64,23.31,41.61,0,0-3.09,21.31-15.61,24.61,0,0-31.58,17.46-40.05,13.26,0,0-115-142.34-122.19-158.87,0,0,10.54-89.63,121.08-70.46,0,0,58.34,13.25,73.16,28.18,0,0,13.57,6.57,20.8-16.39,0,0,13.88-17.41,32.48-21.87,0,0,59.11-16.74,90.28-4.06l28.17,11.86s3.12-18.54,2.7-21.9c0,0,31.91-6,48-2.64,0,0-13.55-26.37-3.33-38.63,0,0,15.28-33.8,56.65-13.58a48.72,48.72,0,0,1,5.26,30.25s52.36-40.45,65.41-38.47c0,0,36.17,17.66,23,46.24C450.18,35.45,437.66,64.27,404.62,85.58Z" transform="translate(151.77 61.77)"/><path class="cls-15" d="M-53.64,327.46s54.81.47,25.89-21.69c0,0-99.63-98.39-122.47-163.08,0,0,29.74-118.12,154.93-79.14,0,0,75.81,41,111.39-16.36,0,0,41.14-41.23,128-10.25,0,0,68.07.8,51.35-37.72,0,0,12.58-55,86-18.72,0,0,2.51,37.39,55.14-15.59,0,0,60.35-2.46,45.49,48.89,0,0-39.4,56.08-44.38,66,0,0,13.84,25.16,22.66,92.62,0,0,46.18,35.83,110.61,21.12,0,0,86.81-19.88,88,13.53,0,0,49.75,94.64-15.68,87.2,0,0-30.18,12.24-47,1.17s-40.59,43-89.75,14.73c0,0-61.78,49-120.08,19.11,0,0-64.85,20.83-79.05,1.79,0,0-34.64,16-24.57,39.28,0,0-46,31.64-55.53-13.94,0,0-83.09,49-103.51,26.09,0,0-44.5,70.23-102.25,31.79-6.31,5.69-51.05,58.26-110.9,10.08,0,0-22.92-60.14,4.5-85.54Z" transform="translate(151.77 61.77)"/><path class="cls-16" d="M-107.84,156.59,3.45,295.4s62.86-.79,47.36-43L29.15,222.25s99.29-57.24,36-116.78c0,0-128.34-78.08-180.17,34Z" transform="translate(151.77 61.77)"/><path class="cls-16" d="M190.16,163.18s120.48-43.3,75.45-70.73c0,0-46.38-57.89-144.46-11.36,0,0-46.42,71.85-2,114,0,0,33.28,42.31,80.73,37.92,0,0,58.84-.09,83.94-59.32l-2.29-29.16L236.4,163.11s-23.24,71.34-76.32,16Z" transform="translate(151.77 61.77)"/><path class="cls-16" d="M323.09,49.8,310.72,18.57s15-49.72,54.51-19.63l4,34.23,58-46.17s73.73,23.16-16.5,88.5c-1.31.95-2.65,1.9-4,2.87,0,0,17.73,81.8,23.43,93.27,0,0-54.34,50-74.19,15.13,0,0-4.54-72.32-15.38-90.39l-48.17,12s-20.54-26.75-18.71-59.63Z" transform="translate(151.77 61.77)"/><path class="cls-5" d="M153,138l49.31-21.54S149.91,87.08,153,138Z" transform="translate(151.77 61.77)"/><path class="cls-17" d="M-42.26,365.73s-.39,11.85,15.72,10l26.63-9s-2.81-28.27-31.21-30.41c0,0-36.87,1.56-41.46,44.76,0,0,11.28,54.67,51.19,38.83,0,0,34.49-6.05,28.8-36.29,0,0-17.66-13.62-31.55,12.71,0,0-17.9,17-26.67-14.63C-50.81,381.67-58,355.76-42.26,365.73Z" transform="translate(151.77 61.77)"/><ellipse class="cls-18" cx="65.89" cy="346.92" rx="54.83" ry="52.04" transform="translate(112.14 71.71) rotate(-6.63)"/><path class="cls-17" d="M115,296.78s17.35,39.32,17.82,60.34c0,0,14,14.38,23.67-10.88L145.62,314s9.44-18.73,24.84,19.29c0,0,20.19,10.47,15.52-18l-4-15.51s15.9-14.2,21.6,33.21c0,0,26.81,17.62,14.05-37.36,0,0-33.28-68.77-54.54-4.54C163.13,291.19,122.73,265.6,115,296.78Z" transform="translate(151.77 61.77)"/><path class="cls-17" d="M216,272.36l23.47,80s25.56,9.06,25.86-12.53l-4.09-17S310.31,311.59,294,275c0,0-39.81-54.83-78.2-11.48Z" transform="translate(151.77 61.77)"/><path class="cls-17" d="M306.39,260.48s-22.2,41.24,6.14,52.74c0,0,19.27,7.17,33.66-5,0,0,20.46,17.43,10.81-20.3l-8.36-37.87S329.12,243.08,306.39,260.48Z" transform="translate(151.77 61.77)"/><path class="cls-17" d="M557.57,216.85s6.92,76.49,24.13,60.2c0,0-1-59.3-6.05-46.36-2.75-.8,34.69-31.5,38.72,38.51,0,0,20.62,7.48,14.29-13C628.65,256.17,622.6,169,557.57,216.85Z" transform="translate(151.77 61.77)"/><path class="cls-17" d="M428.53,232.27s15.91,33.78,23.05,66.84c0,0,11.28,12.05,18.72-3.24,0,0-12.89-58.71-25.58-72.21C444.72,223.66,421.1,214.87,428.53,232.27Z" transform="translate(151.77 61.77)"/><ellipse class="cls-17" cx="512.55" cy="252.14" rx="41.2" ry="40.59" transform="translate(126.08 122.67) rotate(-6.63)"/><path class="cls-17" d="M368.25,247.69s6.92,76.49,24.12,60.21c0,0-1-59.3-6.05-46.36C383.57,260.73,421,230,425,300c0,0,20.62,7.49,14.29-13C439.32,287,433.27,199.83,368.25,247.69Z" transform="translate(151.77 61.77)"/><path class="cls-19" d="M-22.94,155c-1,5-5,8.48-9,7.73l-.2,0c-3.94-.76-6.33-5.44-5.32-10.46h0c1-5,5-8.49,9-7.74l.19,0c3.95.76,6.33,5.44,5.33,10.46Z" transform="translate(151.77 61.77)"/><path class="cls-19" d="M-5.47,130.4c1.51,4.05-1,8.69-5.54,10.37l-1.3.48c-4.56,1.68-9.49-.25-11-4.29h0c-1.5-4,1-8.69,5.54-10.37l1.3-.48c4.56-1.68,9.49.25,11,4.29Z" transform="translate(151.77 61.77)"/><path class="cls-19" d="M20.8,133.47c-.4,3.64-4.44,6.19-9,5.72l-3.34-.35c-4.58-.47-8-3.8-7.55-7.44h0c.4-3.63,4.44-6.19,9-5.72l3.34.35c4.58.47,8,3.8,7.55,7.44Z" transform="translate(151.77 61.77)"/><path class="cls-19" d="M11.6,148.19c-2.48-4.84-9.27-6.79-15.72-4.28l-1.17.45c-6.45,2.51-10.11,8.53-8.62,13.75-3.61,3.34-5.3,7.36-4,10.68,2.05,5.21,10.64,6.75,19.18,3.43l8.79-3.42c8.54-3.33,13.8-10.24,11.75-15.46C20.51,150,16.52,148.21,11.6,148.19Z" transform="translate(151.77 61.77)"/><path class="cls-19" d="M246.93,291.21c-.52,2.58-2.57,4.35-4.59,4l-.1,0c-2-.39-3.24-2.78-2.73-5.35h0c.52-2.57,2.57-4.35,4.59-4l.1,0c2,.39,3.24,2.79,2.72,5.35Z" transform="translate(151.77 61.77)"/><path class="cls-19" d="M255.87,278.64A4.26,4.26,0,0,1,253,284l-.67.25a4.3,4.3,0,0,1-5.62-2.2h0a4.26,4.26,0,0,1,2.84-5.31l.66-.25a4.31,4.31,0,0,1,5.63,2.2Z" transform="translate(151.77 61.77)"/><path class="cls-19" d="M269.31,280.22c-.2,1.86-2.27,3.17-4.62,2.93L263,283c-2.34-.25-4.07-1.95-3.87-3.81h0c.21-1.86,2.28-3.17,4.62-2.93l1.71.18c2.34.24,4.07,1.95,3.86,3.81Z" transform="translate(151.77 61.77)"/><path class="cls-19" d="M264.61,287.75c-1.27-2.48-4.74-3.48-8-2.19l-.6.23c-3.3,1.29-5.18,4.37-4.41,7-1.85,1.71-2.71,3.76-2,5.47,1.05,2.67,5.45,3.45,9.82,1.76l4.5-1.75c4.37-1.7,7.06-5.24,6-7.91C269.16,288.68,267.13,287.76,264.61,287.75Z" transform="translate(151.77 61.77)"/><path class="cls-19" d="M503.06,256c-.53,2.62-2.62,4.43-4.68,4h-.1c-2.06-.39-3.31-2.84-2.78-5.46h0c.53-2.62,2.62-4.43,4.68-4l.1,0c2.06.4,3.3,2.84,2.78,5.46Z" transform="translate(151.77 61.77)"/><path class="cls-19" d="M512.17,243.15a4.33,4.33,0,0,1-2.89,5.41l-.68.25a4.38,4.38,0,0,1-5.74-2.24h0a4.34,4.34,0,0,1,2.89-5.41l.68-.25a4.38,4.38,0,0,1,5.73,2.24Z" transform="translate(151.77 61.77)"/><path class="cls-19" d="M525.89,244.75c-.21,1.9-2.32,3.23-4.71,3l-1.74-.18c-2.39-.25-4.15-2-3.94-3.88h0c.21-1.9,2.32-3.23,4.71-3l1.74.18c2.39.25,4.15,2,3.94,3.88Z" transform="translate(151.77 61.77)"/><path class="cls-19" d="M521.08,252.43c-1.29-2.52-4.84-3.54-8.2-2.23l-.61.24c-3.37,1.31-5.28,4.45-4.49,7.18-1.88,1.74-2.77,3.84-2.08,5.58,1.07,2.72,5.55,3.52,10,1.79l4.59-1.78c4.46-1.74,7.2-5.35,6.13-8.07C525.74,253.39,523.65,252.45,521.08,252.43Z" transform="translate(151.77 61.77)"/><ellipse class="cls-20" cx="326.5" cy="289.87" rx="10.71" ry="11.78" transform="translate(120.47 101.44) rotate(-6.64)"/><ellipse class="cls-5" cx="65.89" cy="346.92" rx="47.32" ry="44.91" transform="translate(112.13 71.71) rotate(-6.64)"/><path class="cls-19" d="M45.36,350.83c-1.08,5.36-5.36,9.06-9.57,8.25l-.21,0c-4.21-.81-6.76-5.81-5.68-11.16h0c1.07-5.35,5.36-9.06,9.57-8.26l.21,0c4.21.8,6.76,5.81,5.68,11.16Z" transform="translate(151.77 61.77)"/><path class="cls-19" d="M64,324.62c1.6,4.33-1,9.28-5.91,11.06l-1.39.52c-4.87,1.79-10.13-.26-11.73-4.58h0c-1.61-4.32,1-9.27,5.92-11.06l1.39-.51c4.87-1.79,10.13.26,11.73,4.58Z" transform="translate(151.77 61.77)"/><path class="cls-19" d="M92,327.9c-.43,3.88-4.74,6.61-9.63,6.1l-3.56-.37c-4.88-.51-8.49-4.06-8.06-7.94h0c.43-3.88,4.74-6.61,9.62-6.11L84,320c4.88.5,8.49,4.06,8.06,7.94Z" transform="translate(151.77 61.77)"/><path class="cls-19" d="M82.22,343.6c-2.64-5.17-9.9-7.25-16.78-4.58l-1.25.49c-6.88,2.68-10.79,9.1-9.2,14.68-3.85,3.56-5.66,7.85-4.26,11.4,2.19,5.57,11.35,7.2,20.47,3.66l9.38-3.65c9.11-3.55,14.73-10.93,12.54-16.5C91.73,345.55,87.48,343.62,82.22,343.6Z" transform="translate(151.77 61.77)"/></svg>