<svg id="Layer_1" data-name="Layer 1" xmlns="http://www.w3.org/2000/svg" viewBox="0 0 1247.93 617.62"><defs><style>.cls-1{fill:#050505;}.cls-2{fill:#fff;}.cls-3{fill:#ef546f;}.cls-4{fill:#5cbb60;}.cls-5{fill:#e0accf;}.cls-6{fill:#7a664c;}.cls-7{fill:#f2f2f2;}</style></defs><title>logo</title><path class="cls-1" d="M791,301.13l3.3,143.27s11.78,23.37-19.16,36.77q-2.17.94-4.62,1.81c-36.68,13-86.62,27.48-127.76-9.36,0,0,12.7-126.55,7.89-150.46l-69-12.41s-26.47,2.87-21.92-11.53c0,0-135.42,68.27-204.55,65.51,0,0,46.37,79.72,102.27-5.58l98.19-23.6s21.74,80.37-53,116.23c0,0-88,58.19-191.57-6.65,0,0-58-22.46-78.7-111.34,0,0-60.09,47.56-108.58,62.22,0,0,26.59,67.65,23,79.2,0,0-13.53,34.67-35.91,35.35,0,0-60,17.06-72.64,6.67,0,0-138.11-284.66-143.72-315.29,0,0,52.77-146.83,231.44-71.35,0,0,93.07,45.11,112.19,76,0,0,20.29,16.37,41.44-19.48,0,0,30.17-23.9,63.25-24.14,0,0,106.08-5.09,153.63,28.44l42.8,31s12.49-30,13.09-35.82c0,0,56.09,2.36,81.91,14.32,0,0-12.51-49.71,9.49-66.35,0,0,38.95-51,100.71-.73,0,0,8.24,25.08-3,53,0,0,104-47.66,125.18-39.23,0,0,54,43.88,20.66,86.86C887.27,234.49,854.93,278.15,791,301.13Z" transform="translate(122.93 -98.85)"/><path class="cls-2" d="M-32.67,528.86s86,5.19,49.15-38.87c0,0-119.27-185.35-131.59-292,0,0,88.18-169.33,268.2-65.34,0,0,102.82,89.51,178.39,14.78,0,0,78.42-48.14,202,30,0,0,105.16,25.47,93-39.16,0,0,39.11-79.3,139.91,2.13,0,0-9.44,57.84,91-4.1,0,0,94.36,17.75,53,90.68,0,0-81,71.37-92.27,84.71,0,0,12.46,43.25,2.09,149.15,0,0,58.76,71,163.81,71.58,0,0,141.55.65,131.53,52,0,0,43.33,161.88-55.36,127.23,0,0-51.1,7.89-73.21-15s-78.2,51-144.27-9.54c0,0-113.16,52.57-192.83-13.69,0,0-107.88,8.63-123.1-25.45,0,0-59.36,12.06-52.07,51.08,0,0-82.47,31.82-81-41,0,0-146.16,45-169.64,2.86,0,0-94,91.11-169.73,12,0,0-108.87,59.25-175.39-24.16,0,0-14.07-99.78,36.16-113.64Z" transform="translate(122.93 -98.85)"/><path class="cls-3" d="M-93,222.57,39.16,509S145.29,532.67,136,452.78L111.5,391.61s189.9-60.37,107-189.43c0,0-185-187.29-316.8-12.33Z" transform="translate(122.93 -98.85)"/><path class="cls-3" d="M389.44,342.35s224.76-25.29,158-89.26c0,0-57.05-115.79-244.47-76.2,0,0-108.41,102.63-48.54,191.13,0,0,40.63,84.39,124.14,95.74,0,0,101.44,23.11,168.11-66.71l7.57-50-85.1,13.45s-68.24,110.92-137.84-3.27Z" transform="translate(122.93 -98.85)"/><path class="cls-3" d="M646.65,213.74l-9.1-57.48s45.75-77.77,102.51-11.42L733.39,204l119.06-54.72s118.94,68.25-63.8,142.44q-4,1.61-8.14,3.23s-1.66,144.73,3.7,166.31c0,0-114.28,62.6-134.92-4,0,0,20.81-123.55,9.15-158.27L570,300.24S544.89,247,561.12,192.43Z" transform="translate(122.93 -98.85)"/><path class="cls-2" d="M328.79,286.91l91.46-17S343.45,200,328.79,286.91Z" transform="translate(122.93 -98.85)"/><path class="cls-4" d="M-52.24,588s-5.29,19.8,22.58,22.94l48.35-4.75S25,557.45-22,542.75c0,0-62.7-11.77-87.32,59.19,0,0-2.36,96.48,71,85.4,0,0,60.45,3.29,62.69-49.87,0,0-24.42-29.84-58.1,9.07,0,0-36.78,21.63-39.21-35.06C-72.87,611.47-74.82,565-52.24,588Z" transform="translate(122.93 -98.85)"/><ellipse class="cls-5" cx="123.65" cy="602.56" rx="89.96" ry="94.8" transform="translate(-366.03 559.14) rotate(-83.57)"/><path class="cls-4" d="M220.74,543.67s13.86,73,6.44,108.58c0,0,18,29.7,44.12-9.07l-5.79-58.48s23.22-27.86,34.3,42.2c0,0,29.91,25.52,33.16-24.18L332.33,575s32.32-17.69,23.4,64.37c0,0,38.26,40.14,38.27-57.42,0,0-29.18-128.82-90.08-29C303.93,553,245.88,494.16,220.74,543.67Z" transform="translate(122.93 -98.85)"/><path class="cls-4" d="M400.31,542l8.29,143.83s39.51,25.24,48.44-11l-.25-30.19s87,.27,73.81-67.8c0,0-45.62-107.89-127.22-49.89Z" transform="translate(122.93 -98.85)"/><path class="cls-4" d="M556.37,560.9s-53.5,60.78-10.28,91.22c0,0,29.65,19.6,58.63,4.76,0,0,27.66,37.35,26.13-30l.73-67.05S601.44,540.46,556.37,560.9Z" transform="translate(122.93 -98.85)"/><path class="cls-4" d="M993.67,581.13s-18.23,131.52,17.1,110.82c0,0,21.53-100.24,7.92-80.45-4.32-2.41,70.72-39.51,50.16,80,0,0,31.81,20.66,29.15-16.36C1098,675.12,1121.88,525.94,993.67,581.13Z" transform="translate(122.93 -98.85)"/><path class="cls-4" d="M773.92,557.51s13.61,63.11,12.71,121.57c0,0,14.29,24.7,32.79,1.85,0,0,1.23-103.92-14.88-131.6C804.54,549.34,768.21,525.31,773.92,557.51Z" transform="translate(122.93 -98.85)"/><ellipse class="cls-4" cx="907.64" cy="623.8" rx="70.18" ry="71.24" transform="translate(309.1 1357.06) rotate(-83.57)"/><path class="cls-4" d="M664.49,568s-18.23,131.52,17.1,110.82c0,0,21.53-100.24,7.92-80.45-4.32-2.41,70.72-39.5,50.16,80,0,0,31.81,20.67,29.15-16.35C768.83,662,792.7,512.82,664.49,568Z" transform="translate(122.93 -98.85)"/><path class="cls-6" d="M43.79,250.91C40.13,259,32,263.24,25.67,260.43l-.32-.13c-6.35-2.82-8.54-11.64-4.88-19.7h0c3.65-8.06,11.78-12.33,18.12-9.52l.31.14c6.35,2.81,8.54,11.64,4.89,19.7Z" transform="translate(122.93 -98.85)"/><path class="cls-6" d="M82.81,216.38c1,7.41-5,14.26-13.38,15.3L67,232c-8.34,1-15.88-4.12-16.83-11.53h0c-1-7.41,5-14.26,13.38-15.3l2.38-.3c8.34-1,15.88,4.13,16.83,11.53Z" transform="translate(122.93 -98.85)"/><path class="cls-6" d="M125.85,231.81c-2.1,6-9.9,8.7-17.42,6.11L102.95,236c-7.52-2.59-11.91-9.51-9.81-15.48h0c2.1-6,9.9-8.7,17.42-6.12l5.48,1.9c7.52,2.59,11.91,9.51,9.81,15.47Z" transform="translate(122.93 -98.85)"/><path class="cls-6" d="M104.6,253c-2.28-9.13-13-15.06-24.8-13.36l-2.14.31c-11.85,1.71-20.36,10.41-19.89,19.79C50.39,264,46,270.07,46.88,276.18c1.42,9.58,15.28,15.52,31,13.27L94,287.13c15.67-2.27,27.24-11.86,25.82-21.45C118.9,259.56,112.89,255,104.6,253Z" transform="translate(122.93 -98.85)"/><path class="cls-6" d="M445,585.82c-1.87,4.13-6,6.31-9.28,4.87l-.16-.07c-3.25-1.44-4.37-6-2.5-10.08h0c1.87-4.12,6-6.31,9.28-4.87l.16.07c3.25,1.44,4.37,6,2.5,10.08Z" transform="translate(122.93 -98.85)"/><path class="cls-6" d="M465,568.15c.49,3.79-2.58,7.3-6.85,7.83l-1.22.15c-4.27.53-8.13-2.11-8.61-5.9h0c-.49-3.79,2.58-7.3,6.85-7.83l1.22-.15c4.27-.53,8.13,2.11,8.61,5.9Z" transform="translate(122.93 -98.85)"/><path class="cls-6" d="M487,576c-1.08,3.05-5.07,4.45-8.92,3.13l-2.81-1c-3.85-1.32-6.1-4.87-5-7.92h0c1.08-3.05,5.07-4.45,8.92-3.13l2.81,1c3.85,1.32,6.1,4.87,5,7.92Z" transform="translate(122.93 -98.85)"/><path class="cls-6" d="M476.17,586.9c-1.17-4.67-6.63-7.71-12.69-6.84l-1.1.16c-6.06.88-10.42,5.33-10.18,10.13-3.78,2.15-6,5.28-5.58,8.41.73,4.9,7.82,7.95,15.85,6.79l8.26-1.19c8-1.16,13.94-6.07,13.22-11C483.48,590.25,480.41,587.9,476.17,586.9Z" transform="translate(122.93 -98.85)"/><path class="cls-6" d="M890.17,626.54c-1.91,4.21-6.15,6.43-9.46,5l-.16-.07c-3.32-1.47-4.46-6.07-2.55-10.28h0c1.91-4.21,6.15-6.44,9.46-5l.16.07c3.32,1.47,4.46,6.08,2.55,10.28Z" transform="translate(122.93 -98.85)"/><path class="cls-6" d="M910.53,608.52c.5,3.87-2.63,7.44-7,8l-1.25.16c-4.35.54-8.29-2.15-8.78-6h0c-.5-3.87,2.63-7.44,7-8l1.24-.16c4.35-.54,8.29,2.16,8.78,6Z" transform="translate(122.93 -98.85)"/><path class="cls-6" d="M933,616.57c-1.09,3.11-5.17,4.54-9.09,3.19l-2.86-1c-3.93-1.35-6.22-5-5.12-8.08h0c1.1-3.11,5.17-4.54,9.09-3.19l2.86,1c3.93,1.35,6.22,5,5.12,8.08Z" transform="translate(122.93 -98.85)"/><path class="cls-6" d="M921.91,627.64c-1.19-4.76-6.76-7.86-12.94-7l-1.12.16c-6.18.89-10.63,5.43-10.38,10.33-3.85,2.2-6.16,5.39-5.69,8.58.74,5,8,8.1,16.16,6.92l8.43-1.21c8.18-1.18,14.22-6.19,13.48-11.19C929.37,631.06,926.23,628.66,921.91,627.64Z" transform="translate(122.93 -98.85)"/><ellipse class="cls-7" cx="578.74" cy="618.24" rx="20.37" ry="18.51" transform="translate(22.53 1025.28) rotate(-83.57)"/><ellipse class="cls-2" cx="123.65" cy="602.56" rx="77.64" ry="81.81" transform="translate(-366.03 559.13) rotate(-83.57)"/><path class="cls-6" d="M94.07,606.2c-3.91,8.61-12.57,13.16-19.34,10.16l-.34-.14c-6.78-3-9.12-12.42-5.21-21h0C73.08,586.6,81.75,582,88.52,585l.33.15c6.78,3,9.11,12.42,5.21,21Z" transform="translate(122.93 -98.85)"/><path class="cls-6" d="M135.71,569.35c1,7.91-5.37,15.22-14.27,16.33l-2.55.32c-8.9,1.11-17-4.4-18-12.3h0c-1-7.9,5.38-15.21,14.28-16.32l2.54-.32c8.9-1.11,16.95,4.4,18,12.3Z" transform="translate(122.93 -98.85)"/><path class="cls-6" d="M181.64,585.81c-2.24,6.37-10.57,9.28-18.6,6.52l-5.85-2c-8-2.76-12.71-10.15-10.47-16.52h0c2.24-6.37,10.57-9.28,18.59-6.53l5.85,2c8,2.76,12.71,10.15,10.47,16.51Z" transform="translate(122.93 -98.85)"/><path class="cls-6" d="M159,608.43c-2.43-9.74-13.83-16.07-26.47-14.26l-2.29.33c-12.64,1.83-21.73,11.11-21.23,21.13-7.87,4.49-12.59,11-11.62,17.54,1.52,10.23,16.31,16.57,33,14.16l17.22-2.48c16.72-2.42,29.07-12.65,27.56-22.89C174.22,615.43,167.81,610.52,159,608.43Z" transform="translate(122.93 -98.85)"/></svg>