<svg xmlns="http://www.w3.org/2000/svg" viewBox="0 0 454.77 233.65"><defs><style>.cls-1{fill:#12100b;stroke:#1d1d1b;}.cls-1,.cls-3,.cls-5{stroke-miterlimit:10;}.cls-2{font-size:47.67px;}.cls-2,.cls-4{fill:#1d1d1b;font-family:MVBoli, MV Boli;}.cls-3{fill:#46bdd0;}.cls-3,.cls-5{stroke:#000;stroke-width:6px;}.cls-4{font-size:135.07px;}.cls-5{fill:#e73448;}</style></defs><title>logo</title><g id="hand"><ellipse class="cls-1" cx="499.79" cy="189.97" rx="13.4" ry="31.06" transform="translate(-61.16 368.31) rotate(-57.19)"/><ellipse class="cls-1" cx="490.6" cy="153.31" rx="12.69" ry="7.83" transform="translate(-34.56 343.79) rotate(-57.19)"/><ellipse class="cls-1" cx="511.82" cy="150.74" rx="12.69" ry="7.83" transform="translate(-22.69 360.44) rotate(-57.19)"/><ellipse class="cls-1" cx="527.56" cy="161.36" rx="12.69" ry="7.84" transform="translate(-24.38 378.55) rotate(-57.19)"/><ellipse class="cls-1" cx="536.08" cy="180.11" rx="12.69" ry="7.83" transform="matrix(0.54, -0.84, 0.84, 0.54, -36.26, 394.28)"/><ellipse class="cls-1" cx="538.92" cy="274.61" rx="13.4" ry="31.06" transform="translate(-114.37 439.97) rotate(-57.19)"/><ellipse class="cls-1" cx="529.73" cy="237.94" rx="12.69" ry="7.83" transform="translate(-87.77 415.44) rotate(-57.19)"/><ellipse class="cls-1" cx="550.95" cy="235.38" rx="12.69" ry="7.83" transform="translate(-75.9 432.1) rotate(-57.19)"/><ellipse class="cls-1" cx="566.69" cy="245.99" rx="12.69" ry="7.84" transform="translate(-77.59 450.21) rotate(-57.19)"/><ellipse class="cls-1" cx="575.21" cy="264.75" rx="12.69" ry="7.83" transform="translate(-89.47 465.94) rotate(-57.19)"/></g><g id="text"><text class="cls-2" transform="translate(3 219.45)">Pet Companions</text><rect class="cls-3" x="3" y="5.14" width="161.17" height="166.85" rx="9.53" ry="9.53"/><text class="cls-4" transform="translate(35.18 140.56)">P</text><path class="cls-5" d="M173.7,5.14h142.1a9.54,9.54,0,0,1,9.54,9.54V162.45a9.53,9.53,0,0,1-9.53,9.53H173.7a9.53,9.53,0,0,1-9.53-9.53V14.67A9.53,9.53,0,0,1,173.7,5.14Z"/><text class="cls-4" transform="translate(190.28 138.94)">C</text></g></svg>